<svg width="13" height="12" viewBox="0 0 13 12" fill="none" xmlns="http://www.w3.org/2000/svg">
<path d="M0.808594 5.99805C0.808594 5.90039 0.830078 5.79883 0.873047 5.69336C0.916016 5.58398 0.990234 5.47852 1.0957 5.37695L5.47852 1.28711C5.63086 1.13867 5.76367 1.0332 5.87695 0.970703C5.99414 0.908203 6.125 0.876953 6.26953 0.876953C6.47266 0.876953 6.64062 0.949219 6.77344 1.09375C6.90625 1.23438 6.97266 1.4043 6.97266 1.60352V3.75391H11.4961C11.9102 3.75391 12.2324 3.86719 12.4629 4.09375C12.6934 4.32031 12.8086 4.63867 12.8086 5.04883V6.95898C12.8086 7.36914 12.6934 7.6875 12.4629 7.91406C12.2324 8.14062 11.9102 8.25391 11.4961 8.25391H6.97266V10.4219C6.97266 10.625 6.90625 10.793 6.77344 10.9258C6.64453 11.0586 6.47852 11.125 6.27539 11.125C6.13477 11.125 6.00195 11.0938 5.87695 11.0312C5.75195 10.9688 5.61914 10.873 5.47852 10.7441L1.0957 6.61914C0.990234 6.51758 0.916016 6.41211 0.873047 6.30273C0.830078 6.19336 0.808594 6.0918 0.808594 5.99805Z" fill="#E14F62"/>
</svg>
