<svg width="13" height="12" viewBox="0 0 13 12" fill="none" xmlns="http://www.w3.org/2000/svg">
<path d="M12.3242 5.99805C12.3242 6.0918 12.3027 6.19336 12.2598 6.30273C12.2168 6.41211 12.1406 6.51758 12.0312 6.61914L7.64844 10.7441C7.51172 10.873 7.38086 10.9688 7.25586 11.0312C7.13086 11.0938 6.99609 11.125 6.85156 11.125C6.65234 11.125 6.48633 11.0586 6.35352 10.9258C6.2207 10.793 6.1543 10.625 6.1543 10.4219V8.25391H1.63672C1.21875 8.25391 0.892578 8.14062 0.658203 7.91406C0.427734 7.6875 0.3125 7.36914 0.3125 6.95898V5.04883C0.3125 4.63867 0.427734 4.32031 0.658203 4.09375C0.892578 3.86719 1.21875 3.75391 1.63672 3.75391H6.1543V1.60352C6.1543 1.4043 6.2207 1.23438 6.35352 1.09375C6.48633 0.949219 6.65625 0.876953 6.86328 0.876953C7.00391 0.876953 7.13086 0.908203 7.24414 0.970703C7.36133 1.0332 7.49609 1.13867 7.64844 1.28711L12.0371 5.37695C12.1426 5.47852 12.2168 5.58398 12.2598 5.69336C12.3027 5.79883 12.3242 5.90039 12.3242 5.99805Z" fill="#E14F62"/>
</svg>
