<svg width="12" height="13" viewBox="0 0 12 13" fill="none" xmlns="http://www.w3.org/2000/svg">
<path d="M4.56445 11.0117C4.68164 11.0117 4.77539 10.9785 4.8457 10.9121C4.91602 10.8418 4.94922 10.7539 4.94531 10.6484L4.77539 4.58398C4.77148 4.47461 4.73438 4.38867 4.66406 4.32617C4.59375 4.25977 4.50391 4.22656 4.39453 4.22656C4.27344 4.22656 4.17773 4.25977 4.10742 4.32617C4.04102 4.38867 4.00977 4.47656 4.01367 4.58984L4.18945 10.6543C4.19336 10.7598 4.22852 10.8457 4.29492 10.9121C4.36523 10.9785 4.45508 11.0117 4.56445 11.0117ZM6.26953 11.0117C6.38281 11.0117 6.47461 10.9785 6.54492 10.9121C6.61523 10.8457 6.65039 10.7578 6.65039 10.6484V4.58398C6.65039 4.47852 6.61523 4.39258 6.54492 4.32617C6.47461 4.25977 6.38281 4.22656 6.26953 4.22656C6.15234 4.22656 6.05859 4.25977 5.98828 4.32617C5.91797 4.39258 5.88281 4.47852 5.88281 4.58398V10.6484C5.88281 10.7578 5.91797 10.8457 5.98828 10.9121C6.05859 10.9785 6.15234 11.0117 6.26953 11.0117ZM7.96875 11.0117C8.07812 11.0117 8.16602 10.9805 8.23242 10.918C8.30273 10.8516 8.33984 10.7637 8.34375 10.6543L8.51953 4.58984C8.52344 4.48047 8.49023 4.39258 8.41992 4.32617C8.35352 4.25977 8.25977 4.22656 8.13867 4.22656C8.0293 4.22656 7.93945 4.25977 7.86914 4.32617C7.79883 4.38867 7.76367 4.47461 7.76367 4.58398L7.58789 10.6484C7.58398 10.7578 7.61719 10.8457 7.6875 10.9121C7.75781 10.9785 7.85156 11.0117 7.96875 11.0117ZM3.79102 2.82617V1.60742C3.79102 1.19336 3.91602 0.869141 4.16602 0.634766C4.41992 0.400391 4.76758 0.283203 5.20898 0.283203H7.3125C7.75781 0.283203 8.10547 0.400391 8.35547 0.634766C8.60938 0.869141 8.73633 1.19336 8.73633 1.60742V2.82617H7.77539V1.6543C7.77539 1.50586 7.72656 1.38672 7.62891 1.29688C7.53516 1.20703 7.4082 1.16211 7.24805 1.16211H5.27344C5.11719 1.16211 4.99023 1.20703 4.89258 1.29688C4.79492 1.38672 4.74609 1.50586 4.74609 1.6543V2.82617H3.79102ZM1.30078 3.35352C1.17969 3.35352 1.07422 3.31055 0.984375 3.22461C0.894531 3.13477 0.849609 3.02344 0.849609 2.89062C0.849609 2.76563 0.894531 2.66016 0.984375 2.57422C1.07422 2.48438 1.17969 2.43945 1.30078 2.43945H11.2324C11.3574 2.43945 11.4629 2.48438 11.5488 2.57422C11.6387 2.66016 11.6836 2.76563 11.6836 2.89062C11.6836 3.02344 11.6387 3.13477 11.5488 3.22461C11.4629 3.31055 11.3574 3.35352 11.2324 3.35352H1.30078ZM3.7207 12.7168C3.31055 12.7168 2.97852 12.5957 2.72461 12.3535C2.47461 12.1152 2.33789 11.7891 2.31445 11.375L1.93359 3.24219H10.6055L10.2129 11.3691C10.1934 11.7832 10.0566 12.1113 9.80273 12.3535C9.55273 12.5957 9.22266 12.7168 8.8125 12.7168H3.7207Z" fill="black"/>
</svg>
