<svg width="25" height="25" viewBox="0 0 25 25" fill="none" xmlns="http://www.w3.org/2000/svg">
<path d="M20.3926 14.6253C22.4423 14.6022 23.9539 12.9082 23.7135 10.8776C23.0455 5.23281 18.1653 0.50502 12.1511 0.50502C5.71922 0.50502 0.505096 5.70606 0.505096 12.1218C0.505096 18.5376 5.71922 23.7386 12.1511 23.7386C13.8938 23.7386 15.1893 23.3824 15.4424 22.3494C15.6956 21.3165 15.351 21.0385 14.1766 18.1828C13.5762 16.7229 14.2285 15.3789 15.1893 14.8997C16.1501 14.4205 18.3265 14.6486 20.3926 14.6253Z" fill="#FFD4D9"/>
<path d="M13.6371 9.59643C15.0319 9.59643 16.1625 8.46577 16.1625 7.07104C16.1625 5.6763 15.0319 4.54565 13.6371 4.54565C12.2424 4.54565 11.1117 5.6763 11.1117 7.07104C11.1117 8.46577 12.2424 9.59643 13.6371 9.59643Z" fill="#E14F62"/>
<path d="M7.07112 13.132C8.46586 13.132 9.59651 12.0013 9.59651 10.6066C9.59651 9.21185 8.46586 8.08119 7.07112 8.08119C5.67639 8.08119 4.54573 9.21185 4.54573 10.6066C4.54573 12.0013 5.67639 13.132 7.07112 13.132Z" fill="#E14F62"/>
<path d="M9.09143 19.698C10.2072 19.698 11.1117 18.7935 11.1117 17.6777C11.1117 16.5619 10.2072 15.6574 9.09143 15.6574C7.97565 15.6574 7.07112 16.5619 7.07112 17.6777C7.07112 18.7935 7.97565 19.698 9.09143 19.698Z" fill="#E14F62"/>
</svg>
