<svg width="25" height="25" viewBox="0 0 25 25" fill="none" xmlns="http://www.w3.org/2000/svg">
<path d="M21.1546 13.5711C22.1451 11.9501 22.4674 9.9418 22.0365 8.07452C21.1161 3.82099 16.0192 2.0829 12.8443 4.93335C12.5929 5.1576 12.3693 5.41609 12.1219 5.67389C11.8745 5.41609 11.6508 5.1576 11.3994 4.93335C8.22452 2.0829 3.12761 3.82099 2.20717 8.07452C1.77637 9.9418 2.0986 11.9501 3.08909 13.5711C4.82229 16.4122 7.61702 18.6244 10.3432 20.6293C11.402 21.4079 12.8417 21.4079 13.9005 20.6293C16.6267 18.6244 19.4214 16.4122 21.1546 13.5711Z" fill="#FFD4D9"/>
<path fill-rule="evenodd" clip-rule="evenodd" d="M15.9619 6.20859C16.1593 5.53977 16.8616 5.15762 17.5304 5.35501C18.8295 5.73846 19.9425 6.75898 20.3979 8.20774C20.607 8.87303 20.2372 9.58186 19.5719 9.79096C18.9067 10.0001 18.1978 9.63029 17.9887 8.96501C17.791 8.33593 17.3252 7.92757 16.8155 7.77711C16.1467 7.57968 15.7645 6.87747 15.9619 6.20859Z" fill="#E14F62"/>
</svg>
