<svg width="25" height="25" viewBox="0 0 25 25" fill="none" xmlns="http://www.w3.org/2000/svg">
<path d="M2.50113 20.6276C4.60837 19.9128 8.57055 18.9845 11.8843 20.5882C12.0341 20.6607 12.2096 20.6607 12.3594 20.5882C15.6732 18.9845 19.6353 19.9128 21.7426 20.6276C22.447 20.8666 23.2336 20.3517 23.2336 19.6079V8.56581C23.2336 7.96451 22.8804 7.41155 22.3078 7.22781C19.3086 6.26533 15.1065 6.35266 12.3255 7.48984C12.1947 7.54333 12.049 7.54333 11.9182 7.48984C9.13724 6.35266 4.93516 6.26533 1.93591 7.22781C1.36334 7.41155 1.01013 7.96451 1.01013 8.56581V19.6079C1.01013 20.3517 1.79673 20.8666 2.50113 20.6276Z" fill="#E14F62"/>
<path d="M20.7082 16.6224C20.7082 16.9241 20.4434 17.1577 20.1429 17.1303C16.3028 16.7796 14.7479 17.6181 12.5895 18.9122C12.2975 19.0873 11.939 19.1002 11.6229 18.9737C9.06805 17.9513 5.38427 17.9204 2.76115 18.881C2.41144 19.0091 2.02029 18.7608 2.02029 18.3884V6.69511C2.02029 6.30746 2.24023 5.94946 2.6016 5.80915C5.23315 4.78749 9.01578 4.79831 11.6229 5.84163C11.939 5.96815 12.2975 5.95522 12.5895 5.78021C14.6888 4.52188 16.2171 3.69951 19.8322 4.05538C20.3347 4.10483 20.7082 4.53543 20.7082 5.04028V16.6224Z" fill="#FFD4D9"/>
<path d="M11.6168 5.83896C11.6188 5.83976 11.6209 5.84057 11.6229 5.84143C11.939 5.9679 12.2975 5.95497 12.5895 5.77996C12.602 5.77249 12.6145 5.76501 12.6269 5.75754V18.8896C12.6145 18.897 12.602 18.9045 12.5895 18.912C12.2975 19.0871 11.939 19.0999 11.6229 18.9735C11.6209 18.9727 11.6188 18.9718 11.6168 18.971V5.83896Z" fill="#E14F62"/>
<path d="M4.70375 11.1111C4.37182 11.189 4.0406 10.9456 4.0406 10.6046V10.0981C4.0406 9.76697 4.25497 9.4713 4.57628 9.3913C6.18224 8.99142 7.95991 8.99142 9.56586 9.3913C9.88719 9.4713 10.1015 9.76697 10.1015 10.0981V10.6046C10.1015 10.9456 9.77031 11.189 9.43842 11.1111C7.90885 10.7524 6.2333 10.7524 4.70375 11.1111Z" fill="#E14F62"/>
<path d="M4.70375 15.1518C4.37182 15.2296 4.0406 14.9862 4.0406 14.6453V14.1387C4.0406 13.8076 4.25497 13.5119 4.57628 13.4319C6.18224 13.0321 7.95991 13.0321 9.56586 13.4319C9.88719 13.5119 10.1015 13.8076 10.1015 14.1387V14.6453C10.1015 14.9862 9.77031 15.2296 9.43842 15.1518C7.90885 14.793 6.2333 14.793 4.70375 15.1518Z" fill="#E14F62"/>
</svg>
