<svg width="12" height="11" viewBox="0 0 12 11" fill="none" xmlns="http://www.w3.org/2000/svg">
<path d="M6.40306 10.666C6.33666 10.666 6.26048 10.6464 6.17455 10.6074C6.08861 10.5683 6.00853 10.5253 5.93431 10.4785C4.89916 9.81439 3.99877 9.11713 3.23314 8.38666C2.47142 7.65228 1.88158 6.90033 1.46361 6.1308C1.04955 5.35736 0.842516 4.57611 0.842516 3.78705C0.842516 3.28705 0.922594 2.83002 1.08275 2.41596C1.24291 2.00189 1.46556 1.64252 1.75072 1.33783C2.03588 1.02924 2.36791 0.792909 2.74681 0.628846C3.12963 0.464784 3.53978 0.382752 3.97728 0.382752C4.52416 0.382752 5.00267 0.523377 5.41283 0.804627C5.82298 1.08197 6.15306 1.44916 6.40306 1.90619C6.64916 1.44525 6.97533 1.07611 7.38158 0.798768C7.79173 0.521424 8.27025 0.382752 8.81713 0.382752C9.25853 0.382752 9.66869 0.464784 10.0476 0.628846C10.4265 0.792909 10.7585 1.02924 11.0437 1.33783C11.3328 1.64252 11.5554 2.00189 11.7117 2.41596C11.8718 2.83002 11.9519 3.28705 11.9519 3.78705C11.9519 4.57611 11.7429 5.35736 11.3249 6.1308C10.9109 6.90033 10.323 7.65228 9.56127 8.38666C8.79955 9.11713 7.89916 9.81439 6.86009 10.4785C6.78978 10.5253 6.7097 10.5683 6.61986 10.6074C6.53392 10.6464 6.46166 10.666 6.40306 10.666Z" fill="#FF4F62"/>
</svg>
